<svg viewBox="0 0 86 18" fill="none" xmlns="http://www.w3.org/2000/svg">
<rect width="86" height="18" fill="#0F0F0F" style="fill:#0F0F0F;fill:color(display-p3 0.0588 0.0588 0.0588);fill-opacity:1;"/>
<path d="M49.0812 13.15C49.0687 13.2062 49.0187 13.25 48.9562 13.25H45.0625C43.05 13.25 42.0625 11.95 42.0625 9.95C42.0625 7.95 43.6375 5 47.9375 5H50.55C50.5875 5 50.6187 5.0375 50.6125 5.075L49.0812 13.15ZM46.5187 8.25625C45.4375 8.16875 44.55 9.0625 44.6312 10.1438C44.7 10.9938 45.3875 11.6812 46.2313 11.7437C47.3125 11.8312 48.2 10.9375 48.1188 9.85625C48.05 9.0125 47.3625 8.325 46.5187 8.25625Z" fill="#F1F1F1" style="fill:#F1F1F1;fill:color(display-p3 0.9451 0.9451 0.9451);fill-opacity:1;"/>
<path d="M37.2187 5C39.4374 5 40.9687 5.71875 40.7812 8.6875C40.6312 11.0563 38.9999 12.75 36.7499 12.75H35.6874C34.9687 12.75 34.1062 12.8438 33.8249 14.3438L33.3624 16.775C33.3499 16.8312 33.2999 16.875 33.2374 16.875H32.1187C32.0374 16.875 31.9812 16.8063 31.9937 16.725L34.1937 5.1C34.2062 5.04375 34.2562 5 34.3187 5H37.2187ZM37.6687 5.9375C36.1374 5.75 35.2312 7.24375 34.9812 8.9375C34.7312 10.8813 35.5749 11.875 36.6062 11.9375C38.1999 12.125 38.9812 10.6313 39.2312 8.9375C39.4812 6.99375 38.6937 6 37.6687 5.9375Z" fill="#F1F1F1" style="fill:#F1F1F1;fill:color(display-p3 0.9451 0.9451 0.9451);fill-opacity:1;"/>
<path d="M80.5188 13.15C80.5063 13.2062 80.4563 13.25 80.3938 13.25H76.5C74.4875 13.25 73.5 11.95 73.5 9.95C73.5 7.95 75.075 5 79.375 5H81.9125C81.9937 5 82.05 5.06875 82.0375 5.15L80.5188 13.15ZM77.9563 8.25625C76.875 8.16875 75.9812 9.0625 76.0687 10.1438C76.1375 10.9938 76.825 11.6812 77.6687 11.7437C78.75 11.8312 79.6438 10.9375 79.5563 9.85625C79.4875 9.0125 78.8063 8.325 77.9563 8.25625Z" fill="#F1F1F1" style="fill:#F1F1F1;fill:color(display-p3 0.9451 0.9451 0.9451);fill-opacity:1;"/>
<path fill-rule="evenodd" clip-rule="evenodd" d="M69.8125 5H66.6688C66.6063 5 66.5563 5.04375 66.5438 5.1L65.0313 13.1C65.0188 13.175 65.075 13.25 65.1563 13.25H66.4625C66.525 13.25 66.575 13.2062 66.5875 13.15L67.5563 8.03125C67.7625 6.9375 68.475 6.15625 69.5688 6.15625C70.6625 6.15625 71.0875 6.875 70.7438 8.6875L69.9063 13.1C69.8938 13.175 69.95 13.25 70.0313 13.25H71.2125C71.275 13.25 71.325 13.2062 71.3375 13.15L72.3375 7.875C72.8375 5.20625 70.6875 5 69.8125 5Z" fill="#F1F1F1" style="fill:#F1F1F1;fill:color(display-p3 0.9451 0.9451 0.9451);fill-opacity:1;"/>
<path d="M62.0812 13.2492H59.6499C59.5687 13.2492 59.5124 13.1805 59.5249 13.0992L61.0374 5.09924C61.0499 5.04299 61.0999 4.99924 61.1624 4.99924H63.5937C63.6749 4.99924 63.7312 5.06799 63.7187 5.14924L62.2062 13.1492C62.1937 13.2055 62.1437 13.2492 62.0812 13.2492ZM62.6187 1.13049C63.6187 1.04924 64.4499 1.88049 64.3687 2.88049C64.3062 3.66799 63.6687 4.30549 62.8812 4.36799C61.8812 4.44924 61.0499 3.61799 61.1312 2.61799C61.1937 1.83049 61.8312 1.19299 62.6187 1.13049Z" fill="#F1F1F1" style="fill:#F1F1F1;fill:color(display-p3 0.9451 0.9451 0.9451);fill-opacity:1;"/>
<path d="M52.1063 7.17514C52.5625 5.46889 54.3188 4.45639 56.025 4.92514C57.6688 5.37514 58.675 7.06264 58.2875 8.72514C58.075 9.62514 57.5125 10.3376 56.775 10.7626C56.075 11.1689 55.875 11.4376 55.875 11.7501C55.875 12.6251 57.5 13.6876 57.5 15.0314C57.5 16.0939 55.7813 16.8126 54.125 16.8126C52.7688 16.8126 51.5 16.3564 50.6 15.2314C50.575 15.2001 50.5688 15.1626 50.575 15.1314L50.7625 14.1626C50.7813 14.0564 50.9188 14.0251 50.9813 14.1126C51.9125 15.3376 52.9938 15.7689 54.125 15.7689C55.3438 15.7689 55.9375 15.2564 55.9375 14.7564C55.9375 13.6001 53.2875 11.0876 52.425 9.60014C52.0188 8.88764 51.8813 8.02514 52.1063 7.17514ZM55.5 6.13139C54.3313 6.05639 53.3688 7.01889 53.4438 8.18764C53.5063 9.15014 54.2875 9.93139 55.25 9.99389C56.4188 10.0689 57.3813 9.10639 57.3063 7.93764C57.25 6.97514 56.4625 6.18764 55.5 6.13139Z" fill="#F1F1F1" style="fill:#F1F1F1;fill:color(display-p3 0.9451 0.9451 0.9451);fill-opacity:1;"/>
</svg>
